<svg id="Capa_1" enable-background="new 0 0 511.929 511.929" height="512" viewBox="0 0 511.929 511.929" width="512" xmlns="http://www.w3.org/2000/svg"><g><g><path d="m454.843 104.715c-132.586-9.088-265.171-9.088-397.757 0-21.538 1.476-39.045 18.056-41.565 39.497-10.742 91.394-10.742 182.787 0 274.181 2.52 21.441 20.027 38.021 41.565 39.497 132.586 9.089 265.172 9.089 397.757 0 21.538-1.476 39.045-18.056 41.565-39.497 10.742-91.394 10.742-182.787 0-274.181-2.52-21.441-20.027-38.021-41.565-39.497z" fill="#5766cb"/><path d="m67.595 458.589c-3.496-.222-7.002-.455-10.508-.697-21.531-1.485-39.041-18.066-41.567-39.506-10.74-91.388-10.74-182.786 0-274.174 2.526-21.44 20.036-38.02 41.567-39.495 3.496-.242 6.992-.475 10.488-.697-13.387 6.87-23.026 20.046-24.875 35.757-11.084 94.348-11.084 188.697 0 283.045 1.849 15.711 11.498 28.896 24.895 35.767z" fill="#3342aa"/><path d="m431.728 140.678c-117.176-8.088-234.352-8.088-351.528 0-12.676.875-23.025 10.55-24.686 23.147-10.331 78.318-10.331 156.637 0 234.955 1.662 12.597 12.011 22.272 24.686 23.147 117.176 8.089 234.352 8.089 351.528 0 12.676-.875 23.025-10.55 24.686-23.147 10.331-78.318 10.331-156.637 0-234.955-1.661-12.597-12.01-22.272-24.686-23.147z" fill="#bed8fb"/><path d="m107.548 423.661c-9.124-.525-18.237-1.111-27.351-1.738-12.68-.869-23.026-10.548-24.683-23.148-10.336-78.314-10.336-156.638 0-234.952 1.657-12.599 12.003-22.269 24.683-23.148 9.124-.626 18.247-1.213 27.371-1.738-7.729 4.072-13.317 11.7-14.519 20.804-10.69 81.042-10.69 162.074 0 243.116 1.203 9.094 6.78 16.723 14.499 20.804z" fill="#9dc6fb"/></g><g><path d="m347.677 457.508c-96.305 3.048-193.902 1.25-290.082-5.346-17.966-1.227-32.527-15.056-34.622-32.884-10.631-90.388-10.631-182.05 0-272.438 2.095-17.828 16.656-31.657 34.623-32.883 8.647-.591 16.673-1.106 24.536-1.576 4.135-.247 7.287-3.799 7.04-7.934-.248-4.135-3.79-7.292-7.934-7.039-7.906.472-15.973.99-24.664 1.584-25.164 1.717-45.561 21.104-48.498 46.097-10.768 91.551-10.768 184.391 0 275.941 2.938 24.993 23.334 44.38 48.496 46.097 9.183.63 18.382 1.206 27.588 1.749.002.009.003.018.005.027l5.201 22.371c.805 3.463 3.89 5.803 7.299 5.803.562 0 1.133-.063 1.705-.196 4.035-.938 6.545-4.969 5.607-9.003l-4.216-18.135c52.05 2.787 104.388 4.205 156.607 4.205 30.666 0 61.292-.482 91.785-1.448 4.14-.131 7.39-3.593 7.259-7.733s-3.616-7.42-7.735-7.259z"/><path d="m503.853 145.088c-2.938-24.993-23.334-44.38-48.496-46.097-52.437-3.593-105.201-5.748-157.982-6.497l56.154-65.248c2.702-3.14 2.348-7.875-.792-10.577s-7.875-2.347-10.577.792l-64.389 74.817c-13.812-.104-27.621-.113-41.424-.022l-64.368-74.795c-2.703-3.139-7.438-3.495-10.577-.792-3.14 2.702-3.495 7.438-.792 10.577l56.112 65.201c-35.255.47-70.446 1.571-105.48 3.316-4.137.206-7.324 3.727-7.118 7.864s3.734 7.323 7.864 7.117c113.528-5.656 228.708-4.576 342.346 3.212 17.966 1.226 32.526 15.055 34.623 32.883 10.631 90.388 10.631 182.05 0 272.438-2.097 17.828-16.657 31.657-34.627 32.883-25.428 1.749-51.341 3.182-77.02 4.259-4.139.173-7.353 3.669-7.179 7.808.169 4.032 3.49 7.186 7.487 7.186.106 0 .214-.002.32-.006 11.384-.478 22.812-1.037 34.226-1.65l-4.212 18.119c-.938 4.035 1.573 8.065 5.607 9.003.571.133 1.143.196 1.705.196 3.409 0 6.493-2.34 7.299-5.803l5.2-22.371c.002-.01.003-.019.005-.029 9.232-.546 18.445-1.118 27.586-1.747 25.164-1.717 45.561-21.104 48.498-46.097 10.77-91.549 10.77-184.39.001-275.94z"/><path d="m48.079 164.6c-10.369 78.604-10.369 158.313 0 236.917 2.119 16.062 15.411 28.53 31.605 29.648 58.485 4.037 117.383 6.056 176.28 6.056s117.795-2.019 176.28-6.056c16.195-1.118 29.487-13.587 31.605-29.648 10.369-78.604 10.369-158.313 0-236.917-2.118-16.062-15.41-28.531-31.605-29.648-116.971-8.074-235.59-8.074-352.561 0-16.194 1.118-29.486 13.587-31.604 29.648zm207.885-20.704c58.552 0 117.104 2.007 175.247 6.02 9.106.629 16.578 7.629 17.768 16.646 10.197 77.301 10.197 155.692 0 232.994-1.189 9.016-8.661 16.017-17.768 16.645-116.286 8.027-234.209 8.027-350.494 0-9.106-.628-16.578-7.629-17.768-16.646-10.197-77.301-10.197-155.692 0-232.993 1.189-9.017 8.662-16.017 17.768-16.646 58.143-4.013 116.695-6.02 175.247-6.02z"/></g></g></svg>